<svg xmlns="http://www.w3.org/2000/svg" viewBox="0 0 410 404" fill="none">
  <path d="M399.641 59.524L215.643 388.545c-3.724 6.665-13.266 6.67-16.998.01L10.29 59.523c-4.087-7.138 2.012-15.917 10.043-14.45l184.269 33.589a9.995 9.995 0 003.589 0l181.41-33.563c8.014-1.483 14.127 7.275 10.04 14.425z" fill="#41D1FF"/>
  <path d="M292.965.063L156.81 26.705a5 5 0 00-4.041 4.107L134.21 168.128a5 5 0 006.187 5.769l37.921-8.757a5 5 0 016.163 6.025l-11.259 55.154a5 5 0 006.43 5.851l23.422-7.167a5 5 0 016.336 5.933l-17.88 86.95c-1.12 5.442 6.129 8.41 9.132 3.74L202.63 319l111.001-221.536c2.765-5.517-2.01-11.898-8.04-10.948l-39.036 6.155a5 5 0 01-5.725-6.254l25.474-88.03c1.746-6.03-3.852-11.604-9.339-10.529z" fill="#BD34FE"/>
  <path d="M260.147.573L156.81 26.705a5 5 0 00-4.041 4.107L134.21 168.128a5 5 0 006.187 5.769l37.921-8.757a5 5 0 016.163 6.025l-11.259 55.154a5 5 0 006.43 5.851l23.422-7.167a5 5 0 016.336 5.933l-17.88 86.95c-1.12 5.442 6.129 8.41 9.132 3.74L202.63 319l57.517-114.796c2.554-5.095-1.852-11.019-7.396-10.146l-39.036 6.155a5 5 0 01-5.725-6.254l25.474-88.03c1.746-6.03-3.852-11.604-9.339-10.529z" fill="#FFEA83"/>
</svg>
